<svg xmlns="http://www.w3.org/2000/svg"><symbol id="logo" viewBox="0 0 337 71"><title>TOWER</title><text transform="translate(-243 -212)" fill-rule="evenodd" font-size="100" font-family="Kreon-bold, Kreon" font-weight="bold"><tspan x="242" y="282">TOWER</tspan></text></symbol><symbol id="map" viewBox="0 0 20 20"><path d="M10.292 4.229a2.69 2.69 0 1 0 0 5.381 2.69 2.69 0 0 0 0-5.381zm0 4.306a1.615 1.615 0 1 1 0-3.23 1.615 1.615 0 0 1 0 3.23zm0-7.535a6.458 6.458 0 0 0-6.458 6.458c0 3.567 6.458 10.764 6.458 10.764s6.458-7.196 6.458-10.764A6.458 6.458 0 0 0 10.292 1zM4.91 7.525c0-3.009 2.41-5.449 5.382-5.449 2.971 0 5.381 2.44 5.381 5.449s-5.381 9.082-5.381 9.082S4.91 10.535 4.91 7.525z"/></symbol></svg>